HIERARCHY
ROOT Hips
{
	OFFSET -0.179506 -22.333345 2.821913
	CHANNELS 6 Xposition Yposition Zposition Zrotation Yrotation Xrotation 
	JOINT LeftUpLeg
	{
		OFFSET 6.951974 -9.140623 -0.681533
		CHANNELS 3 Zrotation Yrotation Xrotation
		JOINT LeftLeg
		{
			OFFSET 3.427654 -37.519855 -0.449580
			CHANNELS 3 Zrotation Yrotation Xrotation
			JOINT LeftFoot
			{
				OFFSET -1.359570 -39.796059 -4.369333
				CHANNELS 3 Zrotation Yrotation Xrotation
				JOINT LeftToe
				{
					OFFSET 2.635814 -5.579078 11.928840
					CHANNELS 3 Zrotation Yrotation Xrotation
					End Site
					{
						OFFSET 0.000000 0.000000 0.000000
					}
				}
			}
		}
	}
	JOINT RightUpLeg
	{
		OFFSET -6.767048 -9.052170 -0.431982
		CHANNELS 3 Zrotation Yrotation Xrotation
		JOINT RightLeg
		{
			OFFSET -3.829005 -38.256897 -0.885003
			CHANNELS 3 Zrotation Yrotation Xrotation
			JOINT RightFoot
			{
				OFFSET 1.577377 -39.841461 -4.231180
				CHANNELS 3 Zrotation Yrotation Xrotation
				JOINT RightToe
				{
					OFFSET -2.537174 -4.814398 12.334795
					CHANNELS 3 Zrotation Yrotation Xrotation
					End Site
					{
						OFFSET 0.000000 0.000000 0.000000
					}
				}
			}
		}
	}
	JOINT Spine
	{
		OFFSET -0.253288 10.896323 -2.669631
		CHANNELS 3 Zrotation Yrotation Xrotation
		JOINT Spine1
		{
			OFFSET 0.548704 13.518043 0.109247
			CHANNELS 3 Zrotation Yrotation Xrotation
			JOINT Spine2
			{
				OFFSET 0.145701 5.292222 2.542457
				CHANNELS 3 Zrotation Yrotation Xrotation
				JOINT Neck
				{
					OFFSET -0.277840 21.387037 -4.285703
					CHANNELS 3 Zrotation Yrotation Xrotation
					JOINT Head
					{
						OFFSET 0.515184 6.496960 5.134897
						CHANNELS 3 Zrotation Yrotation Xrotation
						End Site
						{
							OFFSET 0.000000 0.000000 0.000000
						}
					}
				}
				JOINT LeftShoulder
				{
					OFFSET 7.884473 12.174932 -3.408961
					CHANNELS 3 Zrotation Yrotation Xrotation
					JOINT LeftArm
					{
						OFFSET 9.097692 3.046888 -0.886815
						CHANNELS 3 Zrotation Yrotation Xrotation
						JOINT LeftForeArm
						{
							OFFSET 25.961220 -1.277207 -2.745643
							CHANNELS 3 Zrotation Yrotation Xrotation
							JOINT LeftHand
							{
								OFFSET 24.923361 0.898606 -0.117091
								CHANNELS 3 Zrotation Yrotation Xrotation
								End Site
								{
									OFFSET 0.000000 0.000000 0.000000
								}
							}
						}
					}
				}
				JOINT RightShoulder
				{
					OFFSET -8.175920 11.883285 -3.861528
					CHANNELS 3 Zrotation Yrotation Xrotation
					JOINT RightArm
					{
						OFFSET -9.601238 3.255117 -0.914307
						CHANNELS 3 Zrotation Yrotation Xrotation
						JOINT RightForeArm
						{
							OFFSET -25.374195 -1.332924 -2.140099
							CHANNELS 3 Zrotation Yrotation Xrotation
							JOINT RightHand
							{
								OFFSET -25.529810 0.777228 -0.555919
								CHANNELS 3 Zrotation Yrotation Xrotation
								End Site
								{
									OFFSET 0.000000 0.000000 0.000000
								}
							}
						}
					}
				}
			}
		}
	}
}
MOTION
Frames: 11
Frame Time: 0.033333
-10.514237 67.798523 -2.328128 111.221097 -33.160670 162.707923 3.092694 3.199271 -5.351626 -6.942499 -6.279592 24.228928 6.689294 15.588492 -6.308036 -0.953088 0.109482 -0.482575 -3.583378 -6.109725 -9.995431 -3.018482 -2.604057 19.463383 -0.255386 -18.239818 14.535362 1.896063 0.567855 -1.729613 -2.716422 -1.040482 18.912939 1.253632 -1.699309 -9.734667 2.544036 -1.764467 3.786646 -6.089107 -4.277148 0.263304 2.955048 -0.450220 -13.632593 0.315245 1.529911 0.298724 9.370323 6.583030 -8.381576 -7.063260 -10.397930 -16.377623 -6.700426 -10.206371 7.719404 10.547370 -8.775659 -4.569744 15.479800 -14.898995 -2.921933 -6.863236 25.569730 -14.812908 -1.156812 7.714724 -0.239138 
-10.543959 67.771629 -2.401234 110.960276 -33.543709 162.805065 2.978417 2.918098 -5.521455 -7.260358 -6.397753 24.628517 6.195663 15.261990 -6.288141 -0.954001 0.109897 -0.496454 -3.562451 -6.023037 -9.700886 -3.014503 -2.302618 18.383772 -0.003397 -18.168933 14.892760 1.831563 0.540776 -1.689339 -2.800856 -0.972622 19.035016 1.229860 -1.690265 -10.006198 2.601749 -1.748828 3.884367 -6.118740 -4.263760 0.106853 3.274667 -0.354000 -14.115302 0.688831 1.633606 0.146427 9.723682 6.822752 -8.599918 -6.768601 -10.281629 -16.681438 -6.444523 -10.309200 7.517040 9.952468 -8.733344 -4.556179 15.023930 -14.833216 -3.258041 -7.619829 24.876843 -15.223642 -1.646949 7.751414 -0.177202 
-10.589458 67.740334 -2.621740 110.540948 -34.279613 162.935039 2.846886 2.756275 -5.874287 -7.757394 -6.375685 25.605876 5.497700 14.374509 -6.248391 -0.965977 0.137558 -0.480164 -3.657024 -6.038310 -9.320672 -3.159656 -1.976828 17.574064 0.024464 -17.971905 15.000648 1.839972 0.490632 -1.700508 -2.961760 -0.811675 19.165193 1.241831 -1.725558 -10.013440 2.635270 -1.697350 3.789891 -6.291118 -4.305672 0.377298 3.381630 -0.371653 -14.361776 0.897898 1.556880 0.045161 10.319856 6.861356 -8.789049 -6.785555 -9.889061 -17.297691 -6.086495 -10.380050 7.412671 9.260384 -8.791297 -4.457870 14.248998 -15.030966 -3.349075 -8.156179 24.092870 -15.621499 -1.929612 7.779373 -0.296147 
-10.529686 67.708138 -3.053006 109.898111 -34.819550 163.254640 2.763036 2.742887 -6.285345 -8.334357 -6.218742 26.789837 4.442693 13.302139 -5.759382 -0.941607 0.111949 -0.530523 -3.844693 -6.112208 -8.969582 -3.299874 -1.685067 17.017760 0.062370 -17.695645 14.809536 1.800120 0.489230 -1.720824 -3.005193 -0.740036 19.391284 1.174143 -1.779018 -10.156059 2.629511 -1.707114 3.833061 -6.463281 -4.506652 0.306111 3.450580 -0.504987 -14.440138 1.112022 1.632355 -0.016603 10.478106 7.142034 -9.137250 -6.674125 -9.491795 -17.454785 -5.663153 -10.442592 7.399739 8.546694 -8.816606 -4.337570 13.701750 -15.330129 -3.607563 -8.806193 23.810296 -15.793547 -2.197752 8.014399 -0.259713 
-10.710606 67.675964 -3.691293 109.358355 -33.875039 163.840677 2.847962 2.656429 -7.089840 -8.697041 -5.809024 28.646095 4.393468 13.186459 -5.795520 -1.021340 0.096636 -0.511222 -3.731898 -6.181938 -8.629386 -3.136527 -1.305921 15.741585 0.158254 -17.386592 14.021383 1.733434 0.486386 -1.770474 -3.171352 -0.514325 19.248665 1.094039 -1.874051 -10.182740 2.665715 -1.623571 3.931049 -6.582906 -4.406220 0.200115 3.595357 -0.537128 -14.790282 1.373903 1.966611 -0.198606 11.056751 7.526186 -9.290961 -6.518280 -9.129361 -18.051046 -5.218842 -10.576729 7.587991 8.009440 -8.469320 -4.314932 12.963533 -14.977316 -3.643132 -9.317801 23.973917 -16.065659 -2.263637 7.999985 -0.200617 
-10.689601 67.639893 -3.613801 109.075677 -34.968321 163.687916 2.692440 2.393848 -7.330633 -9.026402 -5.654904 29.348870 3.398469 12.098232 -5.294825 -1.005044 0.122427 -0.574214 -3.909500 -6.057006 -8.568578 -3.439457 -1.089426 16.226028 -0.013216 -17.498972 14.320957 1.776077 0.437351 -1.802705 -3.095861 -0.532058 19.584735 1.129628 -1.813415 -10.159165 2.636058 -1.563622 3.723889 -6.886100 -4.498314 0.210255 3.666783 -0.401564 -14.965524 1.463925 1.560979 -0.436046 11.202651 7.225419 -9.436239 -6.178406 -9.812346 -18.589487 -5.157486 -10.414791 7.330875 7.516609 -8.501860 -4.242257 11.892163 -15.168529 -3.769270 -10.182890 23.568730 -17.011228 -2.338637 7.938544 -0.393215 
-10.899096 67.604401 -4.042923 108.774222 -34.123794 163.991720 2.824397 2.381650 -8.145734 -9.265711 -5.258689 31.254859 3.214255 12.078755 -5.403565 -1.025096 0.083045 -0.608692 -3.741988 -6.073969 -8.278279 -3.286395 -0.793074 15.398624 0.076292 -17.089703 13.278002 1.708424 0.478547 -1.844239 -3.182689 -0.348724 19.407780 1.046580 -1.900220 -9.949127 2.652859 -1.431519 3.614590 -7.171219 -4.550167 0.273315 3.668085 -0.696281 -15.355007 1.724595 1.682372 -0.538005 11.824210 7.428572 -9.696139 -6.060263 -9.412659 -19.186472 -4.505589 -10.400813 7.783816 6.833730 -7.834670 -4.109654 10.989458 -14.573680 -3.954613 -10.693847 23.399937 -17.307635 -2.695541 8.013480 -0.237153 
-10.897676 67.564911 -4.232152 108.449815 -34.269909 164.333197 2.808536 2.213758 -8.641347 -9.562194 -5.232120 31.911634 2.684570 11.543525 -4.809141 -1.050991 0.115727 -0.592500 -3.713939 -5.922007 -8.245473 -3.380671 -0.265087 15.148639 -0.103631 -17.237172 13.137150 1.738721 0.444455 -1.837514 -3.285137 -0.259520 19.493168 1.015095 -1.967864 -10.042889 2.693604 -1.384653 3.640926 -7.352214 -4.610946 0.020750 3.895513 -0.694154 -15.373890 1.723385 1.473729 -0.776546 12.257168 7.328396 -9.802699 -5.864914 -9.669381 -19.623417 -3.879130 -10.418227 7.490945 6.378734 -7.467601 -4.163382 10.037239 -14.229718 -3.892261 -11.404947 22.910100 -17.760051 -3.003411 7.889023 -0.182328 
-10.934772 67.522522 -4.697367 108.058957 -34.335068 164.626561 2.958123 2.144069 -9.186810 -9.734182 -4.637505 33.168363 1.789311 10.605974 -4.364296 -1.040370 0.106775 -0.621543 -3.697841 -5.962239 -8.016821 -3.505972 -0.289686 14.961151 -0.428983 -17.137590 12.433832 1.757646 0.421909 -1.855645 -3.322407 -0.131776 19.357428 0.912231 -2.037425 -9.741979 2.679435 -1.283025 3.523957 -7.683516 -4.752145 0.165198 3.850749 -0.853876 -15.642243 1.795105 1.319966 -0.821125 12.635703 7.302391 -10.073042 -5.882892 -9.804924 -20.013017 -3.372991 -10.434679 7.834924 5.787952 -7.174682 -3.988382 9.091517 -13.919399 -4.101634 -11.515258 22.463812 -18.004029 -3.247633 7.911582 0.197668 
-10.877640 67.486641 -4.582512 107.872828 -35.312593 164.582820 2.889454 1.864028 -9.529875 -9.916769 -4.609880 33.639962 0.677654 9.566779 -3.605089 -1.039136 0.096964 -0.698500 -3.733823 -5.773304 -7.759937 -3.866392 0.100241 14.953655 -0.761800 -17.610977 12.783145 1.739679 0.449485 -1.873607 -3.345692 -0.072878 19.551430 0.844364 -2.085904 -9.820096 2.706188 -1.230521 3.552087 -7.894825 -4.701047 0.128842 3.923376 -0.591264 -15.714697 1.856984 0.992849 -1.068459 12.868532 7.155484 -10.352484 -5.829651 -10.231123 -20.381241 -3.257372 -10.520561 7.794400 5.302047 -6.980237 -3.922170 8.266009 -13.761255 -4.208870 -11.833092 22.212996 -18.243465 -3.524230 7.941838 0.215534 
-10.881246 67.462807 -5.085411 107.386339 -35.378457 164.714829 2.984962 1.759289 -10.154758 -10.099415 -4.240988 35.371906 -0.764482 8.649336 -2.410738 -0.972098 0.047833 -0.738094 -3.810588 -5.776158 -7.454067 -3.936729 0.231546 15.116781 -0.957827 -17.583639 11.972165 1.675139 0.431679 -1.943314 -3.341753 0.063344 19.642508 0.744865 -2.147760 -9.723136 2.696104 -1.109249 3.509599 -8.280639 -5.032412 0.161232 4.010885 -0.989820 -16.231922 2.050700 0.876299 -1.338003 13.014042 7.087745 -10.569333 -5.683018 -10.353399 -20.819590 -2.270443 -10.540064 7.628672 4.727972 -6.523780 -3.858869 7.558478 -13.611249 -4.401038 -12.407434 22.323097 -18.667268 -4.041715 8.042222 0.098208 
